<svg width="44" height="44" viewBox="0 0 44 44" fill="none" xmlns="http://www.w3.org/2000/svg">
<path d="M22 1.75C33.1838 1.75 42.25 10.8162 42.25 22C42.25 33.1838 33.1838 42.25 22 42.25C10.8162 42.25 1.75 33.1838 1.75 22C1.75 10.8162 10.8162 1.75 22 1.75Z" fill="white"/>
<path d="M22 1.75C33.1838 1.75 42.25 10.8162 42.25 22C42.25 33.1838 33.1838 42.25 22 42.25C10.8162 42.25 1.75 33.1838 1.75 22C1.75 10.8162 10.8162 1.75 22 1.75Z" stroke="#2C2C2C" stroke-width="3.5" stroke-linecap="round"/>
<path d="M30.3332 17C30.3332 16.0833 29.5832 15.3333 28.6665 15.3333H15.3332C14.4165 15.3333 13.6665 16.0833 13.6665 17M30.3332 17V27C30.3332 27.9166 29.5832 28.6666 28.6665 28.6666H15.3332C14.4165 28.6666 13.6665 27.9166 13.6665 27V17M30.3332 17L21.9998 22.8333L13.6665 17" stroke="#2C2C2C" stroke-width="2.5" stroke-linecap="round" stroke-linejoin="round"/>
</svg>
