<svg width="44" height="44" viewBox="0 0 44 44" fill="none" xmlns="http://www.w3.org/2000/svg">
<path d="M22 1.75C33.1838 1.75 42.25 10.8162 42.25 22C42.25 33.1838 33.1838 42.25 22 42.25C10.8162 42.25 1.75 33.1838 1.75 22C1.75 10.8162 10.8162 1.75 22 1.75Z" fill="white"/>
<path d="M22 1.75C33.1838 1.75 42.25 10.8162 42.25 22C42.25 33.1838 33.1838 42.25 22 42.25C10.8162 42.25 1.75 33.1838 1.75 22C1.75 10.8162 10.8162 1.75 22 1.75Z" stroke="#2C2C2C" stroke-width="3.5" stroke-linecap="round"/>
<g clip-path="url(#clip0_168_371)">
<path d="M29.5 20.3333C29.5 26.1666 22 31.1666 22 31.1666C22 31.1666 14.5 26.1666 14.5 20.3333C14.5 18.3442 15.2902 16.4365 16.6967 15.03C18.1032 13.6235 20.0109 12.8333 22 12.8333C23.9891 12.8333 25.8968 13.6235 27.3033 15.03C28.7098 16.4365 29.5 18.3442 29.5 20.3333Z" stroke="#2C2C2C" stroke-width="2.5" stroke-linecap="round" stroke-linejoin="round"/>
<path d="M22 22.8333C23.3807 22.8333 24.5 21.714 24.5 20.3333C24.5 18.9526 23.3807 17.8333 22 17.8333C20.6193 17.8333 19.5 18.9526 19.5 20.3333C19.5 21.714 20.6193 22.8333 22 22.8333Z" stroke="#2C2C2C" stroke-width="2.5" stroke-linecap="round" stroke-linejoin="round"/>
</g>
<defs>
<clipPath id="clip0_168_371">
<rect width="20" height="20" fill="white" transform="translate(12 12)"/>
</clipPath>
</defs>
</svg>
